# AST/ASF file generated using VICON BodyLanguage
# -----------------------------------------------
:version 1.10
:name VICON
:units
  mass 1.0
  length 0.45
  angle deg
:documentation
   .ast/.asf automatically generated from VICON data using
   VICON BodyBuilder and BodyLanguage model FoxedUp or BRILLIANT.MOD
:root
   order TX TY TZ RX RY RZ
   axis XYZ
   position 0 0 0  
   orientation 0 0 0 
:bonedata
  begin
     id 1 
     name lhipjoint
     direction 0.535335 -0.74333 0.401095 
     length 2.04549 
     axis 0 0 0  XYZ
  end
  begin
     id 2 
     name lfemur
     direction 0.34202 -0.939693 0  
     length 6.95643  
     axis 0 0 20  XYZ
    dof rx ry rz
    limits (-160.0 20.0)
           (-70.0 70.0)
           (-60.0 70.0)
  end
  begin
     id 3 
     name ltibia
     direction 0.34192 -0.939729 0   
     length 5.55969   
     axis 0 0 20   XYZ
    dof rx
    limits (-10.0 170.0)
  end
  begin
     id 4 
     name lfoot
     direction 0.216943 -0.596046 0.773088   
     length 2.27918   
     axis -90 7.62852e-016 20   XYZ
    dof rx rz
    limits (-45.0 90.0)
           (-70.0 20.0)
  end
  begin
     id 5 
     name ltoes
     direction 1.53519e-011 -4.21748e-011 1   
     length 1.05562   
     axis -90 7.62852e-016 20   XYZ
    dof rx
    limits (-90.0 20.0)
  end
  begin
     id 6 
     name rhipjoint
     direction -0.576368 -0.719173 0.38806   
     length 2.1142  
     axis 0 0 0  XYZ 
  end
  begin
     id 7 
     name rfemur
     direction -0.34202 -0.939693 0   
     length 7.07928   
     axis 0 0 -20   XYZ
    dof rx ry rz
    limits (-160.0 20.0)
           (-70.0 70.0)
           (-70.0 60.0)
  end
  begin
     id 8 
     name rtibia
     direction -0.34202 -0.939693 0   
     length 5.79974   
     axis 0 0 -20   XYZ
    dof rx
    limits (-10.0 170.0)
 end
 begin
     id 9 
     name rfoot
     direction -0.189288 -0.520065 0.832888   
     length 2.42173  
     axis -90 -7.62852e-016 -20   XYZ
    dof rx rz
    limits (-45.0 90.0)
           (-20.0 70.0)
  end
  begin
     id 10 
     name rtoes
     direction -1.53574e-011 -4.21658e-011 1   
     length 1.14469   
     axis -90 -7.62852e-016 -20   XYZ
    dof rx
    limits (-90.0 20.0)
  end
  begin
     id 11 
     name lowerback
     direction -0.00135702 0.993803 0.111144   
     length 1.91308   
     axis 0 0 0   XYZ
    dof rx ry rz
    limits (-20.0 45.0)
           (-30.0 30.0)
           (-30.0 30.0)
  end
  begin
     id 12 
     name upperback
     direction -0.0056745 0.999813 0.0184631   
     length 1.9212   
     axis 0 0 0   XYZ
    dof rx ry rz
    limits (-20.0 45.0)
           (-30.0 30.0)
           (-30.0 30.0)
  end
  begin
     id 13 
     name thorax
     direction -0.00733434 0.999426 -0.0330788   
     length 1.94196   
     axis 0 0 0   XYZ
    dof rx ry rz
    limits (-20.0 45.0)
           (-30.0 30.0)
           (-30.0 30.0)
  end
  begin
     id 14 
     name lowerneck
     direction 0.0563074 0.996944 -0.0541571   
     length 2.34257   
     axis 0 0 0   XYZ
    dof rx ry rz
    limits (-20.0 45.0)
           (-30.0 30.0)
           (-30.0 30.0)
  end
  begin
     id 15 
     name upperneck
     direction -0.0544519 0.976166 -0.210085   
     length 2.32506   
     axis 0 0 0   XYZ
    dof rx ry rz
    limits (-20.0 45.0)
           (-30.0 30.0)
           (-30.0 30.0)
  end
  begin
     id 16
     name head
     direction -0.0226035 0.997615 -0.0652205  
     length 2.3648  
     axis 0 0 0   XYZ
    dof rx ry rz
    limits (-20.0 45.0)
           (-30.0 30.0)
           (-30.0 30.0)
  end
  begin
     id 17 
     name lclavicle
     direction 0.92109 0.381297 -0.0787716  
     length 4.0487  
     axis 0 0 0   XYZ
    dof ry rz
    limits (-20.0 10.0)
           (0.0 20.0)
  end
  begin
     id 18 
     name lhumerus
     direction 1 -4.48986e-011 3.56724e-027   
     length 4.94991   
     axis 180 -30 -90   XYZ
    dof rx ry rz
    limits (-60.0 90.0)
           (-90.0 90.0)
           (-90.0 90.0)
  end
  begin
     id 19
     name lradius
     direction 1 -4.48981e-011 8.62147e-027   
     length 2.7606   
     axis 180 -30 -90   XYZ
    dof rx
    limits (-10.0 170.0)
  end
  begin
     id 20
     name lwrist
     direction 1 -4.48989e-011 1.59799e-026   
     length 1.3803   
     axis -1.17785e-014 90 90   XYZ
    dof ry
    limits (-180.0 0.0)
 end
  begin
     id 21 
     name lhand
     direction 1 -4.48896e-011 3.19599e-026   
     length 0.843936   
     axis -2.03931e-014 90 90   XYZ
    dof rx rz
    limits (-90.0 90.0)
           (-45.0 45.0)
  end
  begin
     id 22 
     name lfingers
     direction 1 -4.48887e-011 6.39197e-026   
     length 0.680403   
     axis -4.07862e-014 90 90   XYZ
    dof rx
    limits (0.0 90.0)
  end
  begin
     id 23
     name lthumb
     direction 0.707107 -6.348e-011 0.707107   
     length 0.976926   
     axis -90 45 2.85299e-015   XYZ
    dof rx rz
    limits (-45.0 45.0)
           (-45.0 45.0)
  end
  begin
     id 24 
     name rclavicle
     direction -0.951104 0.307692 -0.026953   
     length 4.21801  
     axis 0 0 0   XYZ 
    dof ry rz
    limits (-10.0 20.0)
           (-20.0 0.0)
  end
  begin
     id 25 
     name rhumerus
     direction -1 -4.4896e-011 -1.8171e-018  
     length 4.32982   
     axis 180 30 90   XYZ
    dof rx ry rz
    limits (-90.0 60.0)
           (-90.0 90.0)
           (-90.0 90.0)
  end
  begin
     id 26 
     name rradius
     direction -1 -4.48959e-011 8.25165e-027   
     length 3.20057   
     axis 180 30 90   XYZ
    dof rx
    limits (-10.0 170.0)
  end
  begin
     id 27 
     name rwrist
     direction -1 -4.48997e-011 1.59799e-026   
     length 1.60029   
     axis -1.17785e-014 -90 -90   XYZ
    dof ry
    limits (-180.0 0.0)
  end
  begin
     id 28
     name rhand
     direction -1 -4.49023e-011 3.19599e-026   
     length 0.960433   
     axis -2.03931e-014 -90 -90   XYZ
    dof rx rz
    limits (-90.0 90.0)
           (-45.0 45.0)
  end
  begin
     id 29
     name rfingers
     direction -1 -4.48802e-011 6.39197e-026   
     length 0.774326   
     axis -4.07862e-014 -90 -90   XYZ
    dof rx
    limits (0.0 90.0)
  end
  begin
     id 30
     name rthumb
     direction -0.707107 -6.34876e-011 0.707107   
     length 1.11178   
     axis -90 -45 -2.85299e-015   XYZ
    dof rx rz
    limits (-45.0 45.0)
           (-45.0 45.0)
  end
:hierarchy
  begin
    root lhipjoint rhipjoint lowerback
    lhipjoint lfemur
    lfemur ltibia
    ltibia lfoot
    lfoot ltoes
    rhipjoint rfemur
    rfemur rtibia
    rtibia rfoot
    rfoot rtoes
    lowerback upperback
    upperback thorax
    thorax lowerneck lclavicle rclavicle
    lowerneck upperneck
    upperneck head
    lclavicle lhumerus
    lhumerus lradius
    lradius lwrist
    lwrist lhand lthumb
    lhand lfingers
    rclavicle rhumerus
    rhumerus rradius
    rradius rwrist
    rwrist rhand rthumb
    rhand rfingers
end

#!OML:ASF C:\KaitlinTest1\Natural Motions\Nikki\Session 2\Nikki.ASF
:FULLY-SPECIFIED
:DEGREES
60
root -13.2518 16.5394 4.86593 -80.599 87.8226 -88.5339
lowerback -10.4117 -1.79672 2.52024
upperback -3.69769 -2.49447 -0.530676
thorax 1.84832 -1.20478 -2.25592
lowerneck -5.87841 -10.3487 -10.3679
upperneck 6.13571 42.2299 5.88059
head 167.613 62.811 -37.8529
rclavicle 1.5381e-014 4.77083e-015
rhumerus -38.9402 -25.0652 -80.5227
rradius 17.7269
rwrist 20.7908
rhand -35.2171 1.89797
rfingers 7.12502
rthumb -8.35434 -27.9168
lclavicle 1.5381e-014 4.77083e-015
lhumerus -40.8417 15.2881 82.0557
lradius 21.6894
lwrist -42.5023
lhand -34.1626 3.68504
lfingers 7.12502
lthumb -7.33653 33.5378
rfemur -5.25421 -15.671 21.6359
rtibia 11.426
rfoot -11.0428 9.21544
rtoes 2.94201e-014
lfemur -12.3117 15.108 -17.0239
ltibia 20.5312
lfoot -8.29017 -16.2032
ltoes 4.77083e-015
61
root -13.2528 16.5397 4.86626 -81.1616 87.8637 -89.0763
lowerback -10.3755 -1.80937 2.47951
upperback -3.69255 -2.50637 -0.549733
thorax 1.83418 -1.21102 -2.25287
lowerneck -5.86635 -10.346 -10.3551
upperneck 6.14033 42.2355 5.89484
head 167.673 62.7809 -37.8079
rclavicle 2.89729e-014 1.03368e-014
rhumerus -38.9114 -25.0414 -80.5635
rradius 17.7249
rwrist 20.852
rhand -35.2143 1.9328
rfingers 7.12502
rthumb -8.35155 -27.8821
lclavicle 2.89729e-014 1.03368e-014
lhumerus -40.7764 15.1634 82.0912
lradius 21.6472
lwrist -42.3585
lhand -34.2114 3.69123
lfingers 7.12502
lthumb -7.38359 33.5424
rfemur -5.23014 -15.6276 21.592
rtibia 11.4234
rfoot -11.0628 9.15268
rtoes 3.10104e-014
lfemur -12.2998 15.107 -17.0589
ltibia 20.5299
lfoot -8.26045 -16.2404
ltoes 4.77083e-015
62
root -13.2512 16.5395 4.86556 -80.5259 87.8448 -88.4563
lowerback -10.402 -1.80499 2.49879
upperback -3.70214 -2.50267 -0.539921
thorax 1.83848 -1.20899 -2.2539
lowerneck -5.8514 -10.334 -10.3659
upperneck 6.1588 42.2821 5.90699
head 167.707 62.7403 -37.7862
rclavicle 2.15433e-014 1.19271e-015
rhumerus -38.8971 -24.9194 -80.6543
rradius 17.7815
rwrist 20.7729
rhand -35.2326 1.98458
rfingers 7.12502
rthumb -8.36921 -27.8296
lclavicle 2.15433e-014 1.19271e-015
lhumerus -40.8121 15.2045 82.0586
lradius 21.6795
lwrist -42.3561
lhand -34.2287 3.6431
lfingers 7.12502
lthumb -7.4003 33.4937
rfemur -5.25181 -15.716 21.6093
rtibia 11.4263
rfoot -11.0505 9.25913
rtoes -7.15625e-015
lfemur -12.3042 15.1004 -17.0451
ltibia 20.537
lfoot -8.31119 -16.1912
ltoes 4.77083e-015
63
root -13.2509 16.5392 4.86553 -80.6919 87.8275 -88.637
lowerback -10.4561 -1.80506 2.52476
upperback -3.6777 -2.50731 -0.543685
thorax 1.89187 -1.21048 -2.27558
lowerneck -5.86967 -10.3531 -10.3349
upperneck 6.13837 42.2173 5.8874
head 167.589 62.8071 -37.8633
rclavicle -1.10325e-014 -6.75868e-015
rhumerus -38.7879 -24.648 -80.8963
rradius 17.8789
rwrist 20.4613
rhand -35.2621 1.9071
rfingers 7.12502
rthumb -8.39777 -27.9059
lclavicle -1.10325e-014 -6.75868e-015
lhumerus -40.7575 15.2071 82.0313
lradius 21.6847
lwrist -42.3964
lhand -34.2267 3.59594
lfingers 7.12502
lthumb -7.39841 33.4466
rfemur -5.26936 -15.744 21.6321
rtibia 11.4323
rfoot -11.063 9.28327
rtoes 2.8625e-014
lfemur -12.3236 15.1177 -17.03
ltibia 20.5412
lfoot -8.28429 -16.2168
ltoes 3.65764e-014
64
root -13.2515 16.5386 4.86534 -80.9037 87.81 -88.8406
lowerback -10.4348 -1.80888 2.54249
upperback -3.6788 -2.51399 -0.535552
thorax 1.87825 -1.21416 -2.27701
lowerneck -5.83189 -10.353 -10.3443
upperneck 6.12572 42.1391 5.86598
head 167.524 62.8908 -37.8878
rclavicle 6.95746e-015 -6.75868e-015
rhumerus -38.7561 -24.5881 -80.945
rradius 17.8745
rwrist 20.5374
rhand -35.311 2.12855
rfingers 7.12502
rthumb -8.44493 -27.6826
lclavicle 6.95746e-015 -6.75868e-015
lhumerus -40.7451 15.1953 82.0264
lradius 21.6778
lwrist -42.4186
lhand -34.2288 3.61382
lfingers 7.12502
lthumb -7.40041 33.4644
rfemur -5.2594 -15.7709 21.6537
rtibia 11.4226
rfoot -11.0828 9.30198
rtoes -3.26007e-014
lfemur -12.3276 15.1247 -17.007
ltibia 20.5554
lfoot -8.29105 -16.2252
ltoes -1.01778e-013
65
root -13.2503 16.5387 4.86488 -80.4689 87.8612 -88.3746
lowerback -10.388 -1.81483 2.49484
upperback -3.6876 -2.51561 -0.550398
thorax 1.84494 -1.21552 -2.26381
lowerneck -5.82061 -10.3564 -10.3342
upperneck 6.15445 42.2011 5.87967
head 167.481 62.8339 -37.9222
rclavicle 2.98177e-014 1.03368e-014
rhumerus -38.7583 -24.4415 -81.0309
rradius 17.9138
rwrist 20.5144
rhand -35.3413 2.29009
rfingers 7.12502
rthumb -8.47416 -27.5199
lclavicle 2.98177e-014 1.03368e-014
lhumerus -40.7567 15.21 81.9762
lradius 21.6418
lwrist -42.5147
lhand -34.0765 3.5996
lfingers 7.12502
lthumb -7.25343 33.4553
rfemur -5.20928 -15.8244 21.5778
rtibia 11.4122
rfoot -11.0864 9.36008
rtoes 5.96354e-014
lfemur -12.2839 15.1001 -17.054
ltibia 20.57
lfoot -8.32515 -16.1945
ltoes 1.11319e-014
